<svg height="62" viewBox="0 0 62 62" width="62" xmlns="http://www.w3.org/2000/svg" xmlns:xlink="http://www.w3.org/1999/xlink"><filter id="a" height="125.9%" width="125.9%" x="-13%" y="-9.3%"><feOffset dx="0" dy="2" in="SourceAlpha" result="shadowOffsetOuter1"/><feGaussianBlur in="shadowOffsetOuter1" result="shadowBlurOuter1" stdDeviation="2"/><feColorMatrix in="shadowBlurOuter1" result="shadowMatrixOuter1" type="matrix" values="0 0 0 0 0   0 0 0 0 0   0 0 0 0 0  0 0 0 0.5 0"/><feMerge><feMergeNode in="shadowMatrixOuter1"/><feMergeNode in="SourceGraphic"/></feMerge></filter><g fill="none" filter="url(#a)" transform="translate(4 2)"><path d="m27 53c-14.359 0-26-11.641-26-26s11.641-26 26-26c12.7746251 0 23.397968 9.2137882 25.5868009 21.358137.2714704 1.5062047.4131991 3.0574881.4131991 4.641863 0 14.359-11.641 26-26 26z" fill="#d00000"/><g fill="#fff"><path d="m27 54c-14.888 0-27-12.112-27-27s12.112-27 27-27 27 12.112 27 27-12.112 27-27 27zm0-52c-13.785 0-25 11.215-25 25s11.215 25 25 25 25-11.215 25-25-11.215-25-25-25z"/><path d="m22.294 40c-.256 0-.512-.098-.707-.293-.391-.391-.391-1.023 0-1.414l11.293-11.293-11.293-11.293c-.391-.391-.391-1.023 0-1.414s1.023-.391 1.414 0l11.498 11.498c.667.667.667 1.751 0 2.418l-11.498 11.498c-.195.195-.451.293-.707.293z"/></g></g></svg>