<svg width="115" height="115" viewBox="0 0 115 115" fill="none" xmlns="http://www.w3.org/2000/svg">
<path d="M57.5 115C89.2564 115 115 89.2564 115 57.5C115 25.7436 89.2564 0 57.5 0C25.7436 0 0 25.7436 0 57.5C0 89.2564 25.7436 115 57.5 115Z" fill="#B70000"/>
<path d="M38.1406 68H22.5469V64.9062L29.9062 57.0625C30.9167 55.9583 31.6615 54.9948 32.1406 54.1719C32.6302 53.349 32.875 52.5677 32.875 51.8281C32.875 50.8177 32.6198 50.026 32.1094 49.4531C31.599 48.8698 30.8698 48.5781 29.9219 48.5781C28.901 48.5781 28.0938 48.9323 27.5 49.6406C26.9167 50.3385 26.625 51.2604 26.625 52.4062H22.0938C22.0938 51.0208 22.4219 49.7552 23.0781 48.6094C23.7448 47.4635 24.6823 46.5677 25.8906 45.9219C27.099 45.2656 28.4688 44.9375 30 44.9375C32.3438 44.9375 34.1615 45.5 35.4531 46.625C36.7552 47.75 37.4062 49.3385 37.4062 51.3906C37.4062 52.5156 37.1146 53.6615 36.5312 54.8281C35.9479 55.9948 34.9479 57.3542 33.5312 58.9062L28.3594 64.3594H38.1406V68ZM56.2344 58.5938C56.2344 61.7396 55.5833 64.1458 54.2812 65.8125C52.9792 67.4792 51.0729 68.3125 48.5625 68.3125C46.0833 68.3125 44.1875 67.4948 42.875 65.8594C41.5625 64.224 40.8906 61.8802 40.8594 58.8281V54.6406C40.8594 51.4635 41.5156 49.0521 42.8281 47.4062C44.151 45.7604 46.0521 44.9375 48.5312 44.9375C51.0104 44.9375 52.9062 45.7552 54.2188 47.3906C55.5312 49.0156 56.2031 51.3542 56.2344 54.4062V58.5938ZM51.7188 54C51.7188 52.1146 51.4583 50.7448 50.9375 49.8906C50.4271 49.026 49.625 48.5938 48.5312 48.5938C47.4688 48.5938 46.6823 49.0052 46.1719 49.8281C45.6719 50.6406 45.4062 51.9167 45.375 53.6562V59.1875C45.375 61.0417 45.625 62.4219 46.125 63.3281C46.6354 64.224 47.4479 64.6719 48.5625 64.6719C49.6667 64.6719 50.4635 64.2396 50.9531 63.375C51.4427 62.5104 51.6979 61.1875 51.7188 59.4062V54ZM70.2656 68H65.75V50.5938L60.3594 52.2656V48.5938L69.7812 45.2188H70.2656V68ZM88.2344 58.9062C87.0573 60.0625 85.6823 60.6406 84.1094 60.6406C82.099 60.6406 80.4896 59.9531 79.2812 58.5781C78.0729 57.1927 77.4688 55.3281 77.4688 52.9844C77.4688 51.4948 77.7917 50.1302 78.4375 48.8906C79.0938 47.6406 80.0052 46.6719 81.1719 45.9844C82.3385 45.2865 83.651 44.9375 85.1094 44.9375C86.6094 44.9375 87.9427 45.3125 89.1094 46.0625C90.276 46.8125 91.1823 47.8906 91.8281 49.2969C92.474 50.7031 92.8021 52.3125 92.8125 54.125V55.7969C92.8125 59.5885 91.8698 62.5677 89.9844 64.7344C88.099 66.901 85.4271 68.0573 81.9688 68.2031L80.8594 68.2188V64.4531L81.8594 64.4375C85.7865 64.2604 87.9115 62.4167 88.2344 58.9062ZM85.2188 57.1875C85.9479 57.1875 86.5729 57 87.0938 56.625C87.625 56.25 88.026 55.7969 88.2969 55.2656V53.4062C88.2969 51.875 88.0052 50.6875 87.4219 49.8438C86.8385 49 86.0573 48.5781 85.0781 48.5781C84.1719 48.5781 83.4271 48.9948 82.8438 49.8281C82.2604 50.651 81.9688 51.6875 81.9688 52.9375C81.9688 54.1771 82.25 55.1979 82.8125 56C83.3854 56.7917 84.1875 57.1875 85.2188 57.1875Z" fill="white"/>
</svg>
