<svg width="115" height="115" viewBox="0 0 115 115" fill="none" xmlns="http://www.w3.org/2000/svg">
<path d="M57.5 115C89.2564 115 115 89.2564 115 57.5C115 25.7436 89.2564 0 57.5 0C25.7436 0 0 25.7436 0 57.5C0 89.2564 25.7436 115 57.5 115Z" fill="#B70000"/>
<path d="M38.1406 68H22.5469V64.9062L29.9062 57.0625C30.9167 55.9583 31.6615 54.9948 32.1406 54.1719C32.6302 53.349 32.875 52.5677 32.875 51.8281C32.875 50.8177 32.6198 50.026 32.1094 49.4531C31.599 48.8698 30.8698 48.5781 29.9219 48.5781C28.901 48.5781 28.0938 48.9323 27.5 49.6406C26.9167 50.3385 26.625 51.2604 26.625 52.4062H22.0938C22.0938 51.0208 22.4219 49.7552 23.0781 48.6094C23.7448 47.4635 24.6823 46.5677 25.8906 45.9219C27.099 45.2656 28.4688 44.9375 30 44.9375C32.3438 44.9375 34.1615 45.5 35.4531 46.625C36.7552 47.75 37.4062 49.3385 37.4062 51.3906C37.4062 52.5156 37.1146 53.6615 36.5312 54.8281C35.9479 55.9948 34.9479 57.3542 33.5312 58.9062L28.3594 64.3594H38.1406V68ZM56.2344 58.5938C56.2344 61.7396 55.5833 64.1458 54.2812 65.8125C52.9792 67.4792 51.0729 68.3125 48.5625 68.3125C46.0833 68.3125 44.1875 67.4948 42.875 65.8594C41.5625 64.224 40.8906 61.8802 40.8594 58.8281V54.6406C40.8594 51.4635 41.5156 49.0521 42.8281 47.4062C44.151 45.7604 46.0521 44.9375 48.5312 44.9375C51.0104 44.9375 52.9062 45.7552 54.2188 47.3906C55.5312 49.0156 56.2031 51.3542 56.2344 54.4062V58.5938ZM51.7188 54C51.7188 52.1146 51.4583 50.7448 50.9375 49.8906C50.4271 49.026 49.625 48.5938 48.5312 48.5938C47.4688 48.5938 46.6823 49.0052 46.1719 49.8281C45.6719 50.6406 45.4062 51.9167 45.375 53.6562V59.1875C45.375 61.0417 45.625 62.4219 46.125 63.3281C46.6354 64.224 47.4479 64.6719 48.5625 64.6719C49.6667 64.6719 50.4635 64.2396 50.9531 63.375C51.4427 62.5104 51.6979 61.1875 51.7188 59.4062V54ZM74.8906 68H59.2969V64.9062L66.6562 57.0625C67.6667 55.9583 68.4115 54.9948 68.8906 54.1719C69.3802 53.349 69.625 52.5677 69.625 51.8281C69.625 50.8177 69.3698 50.026 68.8594 49.4531C68.349 48.8698 67.6198 48.5781 66.6719 48.5781C65.651 48.5781 64.8438 48.9323 64.25 49.6406C63.6667 50.3385 63.375 51.2604 63.375 52.4062H58.8438C58.8438 51.0208 59.1719 49.7552 59.8281 48.6094C60.4948 47.4635 61.4323 46.5677 62.6406 45.9219C63.849 45.2656 65.2188 44.9375 66.75 44.9375C69.0938 44.9375 70.9115 45.5 72.2031 46.625C73.5052 47.75 74.1562 49.3385 74.1562 51.3906C74.1562 52.5156 73.8646 53.6615 73.2812 54.8281C72.6979 55.9948 71.6979 57.3542 70.2812 58.9062L65.1094 64.3594H74.8906V68ZM92.9844 58.5938C92.9844 61.7396 92.3333 64.1458 91.0312 65.8125C89.7292 67.4792 87.8229 68.3125 85.3125 68.3125C82.8333 68.3125 80.9375 67.4948 79.625 65.8594C78.3125 64.224 77.6406 61.8802 77.6094 58.8281V54.6406C77.6094 51.4635 78.2656 49.0521 79.5781 47.4062C80.901 45.7604 82.8021 44.9375 85.2812 44.9375C87.7604 44.9375 89.6562 45.7552 90.9688 47.3906C92.2812 49.0156 92.9531 51.3542 92.9844 54.4062V58.5938ZM88.4688 54C88.4688 52.1146 88.2083 50.7448 87.6875 49.8906C87.1771 49.026 86.375 48.5938 85.2812 48.5938C84.2188 48.5938 83.4323 49.0052 82.9219 49.8281C82.4219 50.6406 82.1562 51.9167 82.125 53.6562V59.1875C82.125 61.0417 82.375 62.4219 82.875 63.3281C83.3854 64.224 84.1979 64.6719 85.3125 64.6719C86.4167 64.6719 87.2135 64.2396 87.7031 63.375C88.1927 62.5104 88.4479 61.1875 88.4688 59.4062V54Z" fill="white"/>
</svg>
