<svg height="456" viewBox="0 0 456 456" width="456" xmlns="http://www.w3.org/2000/svg"><g fill="none"><circle cx="227.556" cy="227.556" fill="#fff" r="227.556"/><path d="m455.111 227.556c0 125.156-102.4 227.556-227.556 227.556-72.533 0-136.533-32.711-177.778-85.333 38.4 31.289 88.178 49.778 142.222 49.778 125.156 0 227.556-102.4 227.556-227.556 0-54.044-18.489-103.822-49.778-142.222 52.623 41.243 85.334 105.243 85.334 177.777z" fill="#f8f8f8"/><path d="m331.378 331.378c-8.533 8.533-22.756 8.533-31.289 0l-72.533-72.533-72.533 72.533c-8.533 8.533-22.756 8.533-31.289 0s-8.533-22.756 0-31.289l72.533-72.533-72.533-72.533c-8.533-8.533-8.533-22.756 0-31.289s22.756-8.533 31.289 0l72.533 72.533 72.533-72.533c8.533-8.533 22.756-8.533 31.289 0s8.533 22.756 0 31.289l-72.533 72.533 72.533 72.533c8.533 8.533 8.533 22.755 0 31.289z" fill="#e90000"/></g></svg>